<?xml version="1.0" encoding="utf-8"?>
<!-- Generator: Adobe Illustrator 24.3.0, SVG Export Plug-In . SVG Version: 6.00 Build 0)  -->
<svg version="1.1" id="Layer_1" xmlns="http://www.w3.org/2000/svg" xmlns:xlink="http://www.w3.org/1999/xlink" x="0px" y="0px"
	 viewBox="0 0 617.02 204.26" style="enable-background:new 0 0 617.02 204.26;" xml:space="preserve">
<style type="text/css">
	.st0{fill:#C4A159;}
</style>
<g>
	<path class="st0" d="M529.08,152.87c4.92,1.76,12.72,3.79,22.24,2.77c9.4-1.01,20.11-4.91,29.04-12.39
		c8.97-7.33,16.76-17.88,20.09-30.96c1.64-6.48,2.26-13.56,1-20.54c-1.12-6.8-3.69-13.21-7.08-18.94
		c-6.08-9.99-14.47-17.88-23.93-23.69c-9.52-5.85-19.84-9.45-30.2-11.87c-10.38-2.39-20.8-3.65-31.13-4.48
		c-10.34-1-20.74-1.32-31.15-1.58c-58.31-0.62-109.41,12.67-150.93,31.36c-41.52,19.02-74.18,41.29-103.57,58.55
		c-29.22,17.59-55.05,30.79-78.11,39.43c-23.02,8.68-43,13.04-59.66,14.66c-33.5,3.94-52.61-4.76-60.71-11.68
		c-4.18-3.47-6.3-6.19-7.44-7.84c-1.18-1.65-1.56-2.18-1.56-2.18s0.3,0.58,1.25,2.37c0.96,1.79,2.82,4.75,6.87,8.64
		c4.06,3.84,10.69,8.37,20.93,11.52c10.17,3.2,23.97,4.85,41.01,3.48c17.08-1.09,37.69-4.98,61.37-13.31
		c23.7-8.27,50.26-21.24,79.91-38.51c29.8-16.95,62.64-38.74,103.34-56.96c40.61-17.89,90.43-30.53,147.14-29.74
		c10.12,0.28,20.23,0.77,30.23,2.07c10.02,1.13,19.88,2.82,29.18,5.58c9.27,2.76,18.06,6.72,25.28,12.18
		c7.26,5.41,13.09,12.51,16.45,20.11c1.86,4.34,2.98,8.83,3.12,13.12c0.22,4.12-0.71,8.19-2.16,11.93
		c-2.9,7.55-8.64,13.66-14.44,17.37c-5.82,3.89-11.75,5.1-16.21,5.22c-4.53,0.09-7.9-1.11-10.3-1.89
		c-11.63-4.33-20.26-15.6-24.25-24.33c-2.09-4.47-3.25-8.52-4.48-11.73c-1-3.14-2.24-5.51-4.09-6.12c-1.8-0.6-4.14,0.68-6.64,4.22
		c-2.23,3.55-4.36,9.53-4.26,17.19c0.07,7.61,2.4,16.71,7.85,25.39C508.43,140,517.2,148.29,529.08,152.87z"/>
	<path class="st0" d="M52.8,168.36c4.85,0.99,14.2,1.76,25.12,0.66c10.89-0.88,23.78-3.22,36.31-7.14
		c21.97-6.9,43.04-16.39,62.72-28.48c13.69-8.53,25.54-18.25,35.52-28.56c10.01-10.31,18.25-21.81,22.3-34.62
		c4.25-12.69,2.62-26.82-3.73-36.95c-6.17-10.21-15.95-17.06-25.97-19.54c-20.24-5.02-38.6,4.66-46.16,17.28
		c-3.98,6.28-5.55,13.34-4.74,19.63c0.85,6.25,3.66,11.39,7.17,15.03c3.53,3.66,7.8,5.84,11.82,6.5c4.09,0.69,7.68-0.09,10.49-1.28
		c5.69-2.44,8.54-6.2,9.96-8.96c1.4-2.85,1.49-4.84,1.52-5.95c-0.04-1.12-0.06-1.48-0.06-1.48s-0.07,0.35-0.3,1.44
		c-0.25,1.05-0.68,2.9-2.31,5.33c-1.63,2.34-4.6,5.41-9.75,7.08c-4.97,1.84-12.62,1-18.16-5.59c-2.72-3.17-4.8-7.63-5.22-12.67
		c-0.38-4.98,1.11-10.7,4.63-15.76c3.5-5.08,8.88-9.64,15.78-12.18c6.82-2.63,15.17-3.31,23.32-1.02c8.1,2.22,15.88,7.98,20.76,16.4
		c4.92,8.37,6.08,19.24,2.39,29.97c-3.56,10.77-11.04,21.2-20.54,30.75c-9.55,9.66-20.85,18.78-33.88,26.8
		c-18.71,11.38-40.02,18.17-60.91,19.75c-11.93,0.91-23.5,0.45-32.92-0.59c-9.42-0.86-16.22-2.58-19.75-3.28
		c-8.52-1.65-15.43-3.08-21.25-4.06c-5.75-0.93-10.74-1.66-13.77,0.85c-2.9,2.35-2.86,8.47,2.4,15.34
		C30.75,159.86,41.13,166.18,52.8,168.36z"/>
	<path class="st0" d="M358.18,117.67c-1.52,4.54-2.48,11.77-0.74,19.41c1.66,7.73,5.78,15.82,12.28,22.62
		c12.99,13.89,35.91,20.9,56.4,14.26c18.21-5.73,31.17-21.43,35.11-38.69c2.14-8.66,1.65-18.04-1.1-26.47
		c-2.83-8.43-7.73-15.95-13.86-22.04c-8.57-8.55-19.12-14.29-30.11-17.15c-11-2.81-22.04-2.8-32.31-1.19
		c-20.69,3.11-38.06,12.52-53.17,21.25c-30.36,17.84-55.84,34.31-78.91,47.32c-22.95,13.15-43.1,23.2-60.65,30.86
		c-8.83,3.68-16.9,7.06-24.48,9.53c-7.47,2.84-14.42,4.69-20.7,6.44c-6.23,1.99-12,2.83-17.09,3.94c-2.56,0.51-4.96,0.99-7.22,1.45
		c-2.29,0.26-4.43,0.5-6.44,0.72c-4.02,0.47-7.5,0.88-10.5,1.23c-3.01,0.15-5.55,0.1-7.69,0.17c-8.55,0.17-10.59,0.37-10.59,0.37
		s1.97,0.31,10.57,0.95c2.15,0.13,4.72,0.4,7.78,0.48c3.06-0.14,6.59-0.31,10.69-0.5c2.05-0.11,4.25-0.22,6.59-0.34
		c2.32-0.27,4.78-0.69,7.4-1.06c5.22-0.85,11.16-1.45,17.56-3.18c6.45-1.5,13.62-3.12,21.3-5.73c7.8-2.24,16.08-5.4,25.16-8.87
		c18.02-7.24,38.68-16.94,62.07-29.77c23.46-12.66,49.46-28.92,79.61-46.2c15.09-8.53,31.34-17.01,50.15-19.69
		c9.27-1.4,19.08-1.29,28.47,1.18c9.31,2.47,18.41,7.48,25.57,14.72c5.15,5.15,8.98,11.46,10.93,18.18
		c1.85,6.76,1.8,13.81-0.39,20.35c-4.07,13.19-15.74,23.4-27.89,24.86c-6.99,1.02-14.17-0.2-20.05-2.87
		c-5.9-2.66-10.49-6.57-13.32-10.66c-2.92-4.13-4.18-8.31-4.41-11.26c-0.25-3.1,0.3-4.82,0.67-6c0.97-3.1,3.04-5.65,4.58-6.95
		c0.95-0.66,1.29-1.17,2.38-1.54c1.04-0.33,2.39-0.44,3.69-0.34c2.68,0.19,5.08,1.01,7.18,2.02c2.12,0.98,3.95,2.32,5.92,2.29
		c1.83-0.01,3.94-1.71,4.4-5.81c0.45-3.99-1.35-10.19-6.8-15.15c-2.69-2.47-6.25-4.67-10.74-5.92c-4.45-1.28-10.25-1.19-15.2,0.36
		C369.97,98.4,361.67,106.91,358.18,117.67z"/>
	<path class="st0" d="M163.76,61.13c-3.28-8.49,0.95-18.03,9.44-21.31c8.5-3.28,18.05,0.95,21.33,9.44
		c3.28,8.49-0.95,18.03-9.44,21.31C176.6,73.85,167.05,69.63,163.76,61.13z"/>
</g>
</svg>
