<?xml version="1.0" encoding="utf-8"?>
<!-- Generator: Adobe Illustrator 24.3.0, SVG Export Plug-In . SVG Version: 6.00 Build 0)  -->
<svg version="1.1" id="Layer_1" xmlns="http://www.w3.org/2000/svg" xmlns:xlink="http://www.w3.org/1999/xlink" x="0px" y="0px"
	 viewBox="0 0 1559.06 1842.52" style="enable-background:new 0 0 1559.06 1842.52;" xml:space="preserve">
<style type="text/css">
	.st0{fill:#C09D58;}
	.st1{fill:#FFFFFF;}
	.st2{fill-rule:evenodd;clip-rule:evenodd;fill:#F7F7FB;}
</style>
<g>
	<g>
		<path class="st0" d="M691.32,1238.64c2.06,2.45,3.09,5.6,3.09,9.44c0,4.95-1.83,8.76-5.49,11.42c-3.66,2.67-9.06,4-16.21,4h-26.56
			v-57.74h24.91c6.43,0,11.42,1.29,14.97,3.88c3.55,2.59,5.32,6.24,5.32,10.97c0,3.19-0.78,5.9-2.35,8.12
			c-1.57,2.23-3.73,3.89-6.48,4.99C686.33,1234.55,689.26,1236.19,691.32,1238.64z M652.26,1210.8v20.95h18.39
			c4.67,0,8.28-0.89,10.81-2.68c2.53-1.79,3.79-4.38,3.79-7.8c0-3.41-1.27-6.01-3.79-7.8c-2.53-1.79-6.13-2.68-10.81-2.68H652.26z
			 M684.35,1255.84c2.64-1.76,3.96-4.51,3.96-8.25c0-7.2-5.23-10.81-15.67-10.81h-20.37v21.69h20.37
			C677.81,1258.48,681.71,1257.6,684.35,1255.84z"/>
		<path class="st0" d="M760.32,1258.23v5.28h-40.83v-57.74h39.59v5.28h-33.49v20.54h29.86v5.2h-29.86v21.45H760.32z"/>
		<path class="st0" d="M822.02,1248.08h-32.17l-6.93,15.42h-6.35l26.4-57.74h6.02l26.4,57.74h-6.43L822.02,1248.08z M819.79,1243.13
			l-13.86-31.02l-13.86,31.02H819.79z"/>
		<path class="st0" d="M860.62,1257.57c-4.18-4.29-6.27-10.53-6.27-18.72v-33.08h6.1v32.83c0,6.71,1.51,11.71,4.54,15.01
			c3.02,3.3,7.4,4.95,13.12,4.95c5.77,0,10.17-1.65,13.2-4.95c3.02-3.3,4.54-8.3,4.54-15.01v-32.83h5.94v33.08
			c0,8.19-2.08,14.44-6.23,18.72c-4.15,4.29-9.97,6.43-17.45,6.43C870.63,1264,864.8,1261.86,860.62,1257.57z"/>
		<path class="st0" d="M941.38,1211.05h-20.29v-5.28h46.69v5.28h-20.29v52.46h-6.1V1211.05z"/>
		<path class="st0" d="M988.64,1205.77h6.1v57.74h-6.1V1205.77z"/>
		<path class="st0" d="M1030.79,1211.05v22.68h29.86v5.28h-29.86v24.5h-6.1v-57.74h39.59v5.28H1030.79z"/>
		<path class="st0" d="M1093.81,1257.57c-4.18-4.29-6.27-10.53-6.27-18.72v-33.08h6.1v32.83c0,6.71,1.51,11.71,4.54,15.01
			c3.02,3.3,7.4,4.95,13.12,4.95c5.77,0,10.17-1.65,13.2-4.95c3.02-3.3,4.54-8.3,4.54-15.01v-32.83h5.94v33.08
			c0,8.19-2.08,14.44-6.23,18.72c-4.15,4.29-9.97,6.43-17.45,6.43C1103.82,1264,1097.99,1261.86,1093.81,1257.57z"/>
		<path class="st0" d="M1164.5,1205.77h6.1v52.46h32.33v5.28h-38.44V1205.77z"/>
		<path class="st0" d="M1256.97,1205.77h6.1v52.46h32.33v5.28h-38.44V1205.77z"/>
		<path class="st0" d="M1316.69,1205.77h6.1v57.74h-6.1V1205.77z"/>
		<path class="st0" d="M1358.84,1211.05v22.68h29.86v5.28h-29.86v24.5h-6.1v-57.74h39.59v5.28H1358.84z"/>
		<path class="st0" d="M1456.91,1258.23v5.28h-40.83v-57.74h39.59v5.28h-33.49v20.54h29.86v5.2h-29.86v21.45H1456.91z"/>
	</g>
	<g>
		<path class="st0" d="M628.14,684.22c1.94-1.36,3.99-2.52,6.13-3.5c1.94-0.97,4.18-1.8,6.72-2.48c2.53-0.68,5.35-1.02,8.47-1.02
			c5.84,0,10.46,0.88,13.87,2.63c3.4,1.75,5.89,4.28,7.45,7.59c4.09-2.53,9.39-4.86,15.92-7.01c6.52-2.14,14.16-3.21,22.93-3.21
			c8.95,0,16.94,1.21,23.95,3.64c7.01,2.43,12.95,5.68,17.82,9.75c4.86,4.08,8.52,8.78,10.95,14.11c2.43,5.34,3.65,10.92,3.65,16.73
			c0,8.35-2,15.77-5.99,22.27c-3.99,6.5-9.4,12.27-16.21,17.31c4.28,2.34,8.52,5.07,12.7,8.18c4.18,3.12,7.89,6.62,11.1,10.51
			c3.21,3.9,5.79,7.99,7.74,12.27c1.94,4.28,2.92,8.76,2.92,13.43c0,7.59-1.66,14.41-4.96,20.44c-3.31,6.04-7.84,11.15-13.58,15.33
			c-5.75,4.19-12.56,7.4-20.44,9.64c-7.89,2.24-16.5,3.36-25.85,3.36c-9.35,0-17.38-0.88-24.09-2.63
			c-6.72-1.75-12.02-3.4-15.92-4.97v5.55h-34.17V696.76c0-3.11-1.02-5.34-3.07-6.7c-2.04-1.36-4.72-2.04-8.03-2.04V684.22z
			 M699.98,777.39c-5.45,0-9.74-1.07-12.85-3.21c-3.12-2.14-4.67-5.16-4.67-9.05h0.29c0-4.48,1.94-8.13,5.84-10.95
			c3.89-2.82,8.66-4.23,14.31-4.23c4.09,0,7.89,0.25,11.39,0.73c3.5,0.49,6.72,1.22,9.64,2.19c2.92-3.89,5.26-8.42,7.01-13.58
			c1.75-5.16,2.63-11.14,2.63-17.96c0-8.76-2.73-15.87-8.18-21.32c-5.45-5.45-13.73-8.18-24.82-8.18c-6.04,0-11.29,0.39-15.77,1.17
			c-4.48,0.78-8.37,1.75-11.68,2.92c0.19,0.78,0.29,1.56,0.29,2.34c0,0.78,0,1.56,0,2.34v131.13c2.72,1.17,6.43,2.24,11.1,3.21
			c4.67,0.98,10.71,1.46,18.11,1.46c5.26,0,10.32-0.83,15.19-2.48c4.86-1.65,9.1-4.04,12.7-7.16c3.6-3.11,6.47-6.76,8.62-10.95
			c2.14-4.18,3.21-8.91,3.21-14.16c0-6.81-1.17-13.04-3.5-18.69c-2.34-5.64-5.65-9.83-9.93-12.56c-5.65,2.73-11,4.58-16.06,5.55
			C707.77,776.91,703.49,777.39,699.98,777.39z"/>
		<path class="st0" d="M867.92,743.81c7.59,0,15.19,1.41,22.78,4.23c7.59,2.82,13.87,6.43,18.84,10.81
			c4.97,4.38,7.93,9.35,8.91,14.89c0.97,5.55-1.36,10.95-7.01,16.21c-2.92,2.73-7.3,4.92-13.14,6.57
			c-5.84,1.66-12.22,2.87-19.13,3.65c-6.91,0.78-13.92,1.27-21.03,1.46c-7.11,0.2-13.39,0.29-18.84,0.29
			c0.97,10.13,4.48,18.25,10.51,24.39c6.03,6.13,15.09,9.2,27.16,9.2c7.59,0,14.06-1.12,19.42-3.36c5.35-2.24,9.68-4.72,13-7.45
			c3.89-3.31,7.1-7.01,9.64-11.1l3.21,0.58c0.39,5.26-0.54,10.51-2.77,15.77c-2.24,5.26-5.6,9.93-10.08,14.02
			c-4.48,4.09-10.13,7.4-16.94,9.93c-6.82,2.53-14.7,3.8-23.66,3.8c-7.99,0-15.73-1.02-23.22-3.07c-7.5-2.04-14.26-5.26-20.3-9.64
			c-6.04-4.38-10.86-9.93-14.46-16.65c-3.6-6.72-5.4-14.84-5.4-24.39c0-8.37,1.56-16.21,4.67-23.51c3.11-7.3,7.45-13.68,13-19.13
			c5.55-5.45,12.17-9.73,19.86-12.85C850.64,745.37,858.96,743.81,867.92,743.81z M868.79,756.95c-4.28,0-8.13,1.07-11.54,3.21
			c-3.41,2.14-6.38,4.97-8.91,8.47c-2.53,3.5-4.58,7.4-6.13,11.68c-1.56,4.29-2.53,8.57-2.92,12.85c3.5-0.19,7.25-0.63,11.24-1.31
			c3.99-0.68,7.89-1.51,11.68-2.48c3.8-0.97,7.3-2.14,10.51-3.5c3.21-1.36,5.7-2.92,7.45-4.67c2.14-2.14,3.7-4.62,4.67-7.45
			c0.97-2.82,1.12-5.45,0.44-7.89c-0.68-2.43-2.34-4.53-4.96-6.28C877.7,757.83,873.85,756.95,868.79,756.95z"/>
		<path class="st0" d="M1050.45,828.5c0,3.12,0.63,6.38,1.9,9.78c1.26,3.41,3.55,5.7,6.86,6.86c1.56,0.39,2.72,0.58,3.51,0.58
			l0.29,3.8c-0.98,1.17-2.34,2.19-4.09,3.07c-1.75,0.88-3.55,1.61-5.4,2.19c-1.85,0.58-3.75,1.02-5.7,1.31
			c-1.95,0.29-3.6,0.44-4.96,0.44c-4.67,0-9.1-0.98-13.29-2.92c-4.19-1.94-7.64-4.57-10.37-7.89c-3.31,3.31-7.35,6.13-12.12,8.47
			c-4.77,2.34-10.37,3.5-16.79,3.5c-12.85,0-22.68-2.53-29.5-7.59c-6.82-5.06-10.22-12.36-10.22-21.9c0-8.37,2.34-15.09,7.01-20.15
			c4.67-5.06,10.27-9.05,16.79-11.97c6.52-2.92,13.43-4.91,20.74-5.99c7.3-1.07,13.58-1.7,18.84-1.9v-10.81
			c0-2.34-0.39-4.67-1.17-7.01c-0.78-2.34-1.95-4.43-3.5-6.28c-1.56-1.85-3.5-3.4-5.84-4.67c-2.34-1.26-5.16-1.9-8.47-1.9
			c-4.87,0-9.01,1.27-12.41,3.8c-3.41,2.53-4.92,6.04-4.53,10.51c0.19,3.12-0.83,6.04-3.07,8.76c-2.24,2.73-5.5,4.09-9.78,4.09
			c-3.5,0-6.57-1.07-9.2-3.21c-2.63-2.14-4.14-4.77-4.53-7.89c-0.2-3.5,0.88-7.01,3.21-10.51c2.34-3.5,5.64-6.72,9.93-9.64
			c4.28-2.92,9.25-5.26,14.89-7.01c5.64-1.75,11.68-2.63,18.11-2.63c8.76,0,16.4,1.27,22.93,3.8c6.52,2.53,11.92,5.8,16.21,9.78
			c4.28,3.99,7.54,8.37,9.78,13.14c2.24,4.77,3.55,9.4,3.94,13.87c0.39,7.21,0.48,14.36,0.29,21.47
			C1050.54,812.98,1050.45,820.52,1050.45,828.5z M999.05,841.65c2.72,0,5.4-0.53,8.03-1.61c2.63-1.07,5.11-2.38,7.45-3.94
			c-0.2-0.97-0.34-1.99-0.44-3.07c-0.1-1.07-0.15-2.19-0.15-3.36v-31.25c-4.48,1.17-8.67,2.77-12.56,4.82
			c-3.9,2.04-7.3,4.33-10.22,6.86c-2.92,2.53-5.16,5.21-6.72,8.03c-1.56,2.82-2.24,5.7-2.04,8.62c0.39,3.7,1.7,7.11,3.94,10.22
			C988.58,840.09,992.81,841.65,999.05,841.65z"/>
		<path class="st0" d="M1199.98,749.36v84.4c0,5.07,1.07,8.32,3.21,9.78c2.14,1.46,4.67,2.19,7.59,2.19v3.8
			c-2.15,1.56-4.38,2.92-6.72,4.09c-2.14,0.97-4.52,1.9-7.13,2.77c-2.61,0.88-5.27,1.31-7.97,1.31c-5.99,0-11.2-1.61-15.64-4.82
			c-4.44-3.21-7.15-9.1-8.11-17.67c-1.75,2.14-3.99,4.48-6.72,7.01c-2.73,2.53-5.89,4.96-9.49,7.3c-3.6,2.34-7.59,4.28-11.97,5.84
			c-4.38,1.56-9.01,2.34-13.87,2.34c-3.9,0-7.64-0.49-11.24-1.46c-3.61-0.98-6.72-2.68-9.35-5.11c-2.63-2.43-4.72-5.74-6.28-9.93
			c-1.56-4.18-2.34-9.39-2.34-15.62v-60.16c0-6.62-3.61-9.93-10.81-9.93v-3.8c1.94-1.36,3.99-2.63,6.13-3.8
			c1.94-0.97,4.13-1.9,6.57-2.77c2.43-0.88,5.01-1.31,7.74-1.31c8.95,0,15.14,2.53,18.55,7.59c3.4,5.07,5.11,11.68,5.11,19.86v54.03
			c0,5.26,0.92,8.86,2.77,10.81c1.85,1.95,4.33,2.92,7.45,2.92c2.34,0,4.82-0.73,7.45-2.19c2.63-1.46,5.21-3.16,7.74-5.11
			c2.53-1.94,4.92-3.99,7.16-6.13c2.24-2.14,4.04-3.99,5.4-5.55v-70.68H1199.98z"/>
		<path class="st0" d="M1229.77,749.36h21.03v-26.58h34.75v26.58h21.32v15.19h-21.32v73.01c0,3.31,1.26,5.65,3.8,7.01
			c2.53,1.36,5.45,2.04,8.76,2.04l0.58,4.09c-2.14,1.36-4.38,2.53-6.72,3.5c-2.14,0.97-4.62,1.8-7.43,2.48
			c-2.81,0.68-5.85,1.02-9.14,1.02c-9.66,0-16.18-2.19-19.55-6.57c-3.38-4.38-5.07-10.27-5.07-17.67v-68.93h-21.03V749.36z"/>
		<path class="st0" d="M1484.44,881.37c-1.17-1.36-3.94-3.55-8.32-6.57c-4.38-3.02-10.66-5.11-18.84-6.28v36.8
			c0,3.5-0.44,7.54-1.31,12.12c-0.88,4.57-2.58,8.95-5.11,13.14c-2.53,4.18-6.09,7.74-10.66,10.66c-4.58,2.92-10.47,4.38-17.67,4.38
			c-9.35,0-16.7-1.41-22.05-4.23c-5.36-2.82-9.35-6.13-11.97-9.93c-2.63-3.8-4.28-7.5-4.96-11.1c-0.68-3.61-1.02-6.28-1.02-8.03
			c0-4.87,0.97-9.88,2.92-15.04c1.94-5.16,4.67-10.13,8.18-14.89c3.5-4.77,7.69-9.1,12.56-13c4.86-3.9,10.12-7.01,15.77-9.35v-27.45
			c-1.75,2.14-4.04,4.63-6.86,7.45c-2.82,2.82-6.18,5.6-10.08,8.32c-3.9,2.73-8.23,5.01-13,6.86c-4.77,1.85-9.78,2.77-15.04,2.77
			c-4.09,0-7.94-0.54-11.54-1.61c-3.6-1.07-6.82-2.88-9.64-5.4c-2.82-2.53-5.07-5.89-6.72-10.08c-1.66-4.18-2.48-9.39-2.48-15.62
			V766c0-3.7-0.93-6.32-2.77-7.89c-1.85-1.56-5.01-2.34-9.49-2.34v-4.09c2.14-1.36,4.38-2.63,6.72-3.8c2.14-0.97,4.48-1.9,7.01-2.77
			c2.53-0.88,5.26-1.31,8.18-1.31c9.15,0,15.62,2.58,19.42,7.74c3.8,5.16,5.7,11.93,5.7,20.3V825c0,5.26,0.92,8.86,2.77,10.81
			c1.85,1.95,4.43,2.92,7.74,2.92c2.53,0,5.4-0.92,8.62-2.77c3.21-1.85,6.23-4.04,9.05-6.57c2.82-2.53,5.35-4.91,7.59-7.16
			c2.24-2.24,3.84-3.84,4.82-4.82v-68.05h35.34v108.06c5.45,0.97,10.08,2.43,13.87,4.38c3.8,1.94,6.86,3.94,9.2,5.99
			c2.34,2.04,4.04,4.04,5.11,5.99c1.07,1.94,1.61,3.5,1.61,4.67L1484.44,881.37z M1400.62,910.86c0,6.81,1.21,11.92,3.65,15.33
			c2.43,3.4,5.01,5.01,7.74,4.82c2.53,0,4.82-1.46,6.86-4.38c2.04-2.92,3.07-7.01,3.07-12.27v-39.14
			c-7.01,4.67-12.32,10.46-15.92,17.38C1402.41,899.52,1400.62,905.61,1400.62,910.86z"/>
		<path class="st0" d="M637.78,964.74c0-5.85,1.26-11.7,3.8-17.55c2.53-5.85,6.52-11.12,11.97-15.8
			c5.45-4.68,12.51-8.48,21.17-11.41c8.66-2.93,19.03-4.39,31.1-4.39c10.9,0,20.1,1.22,27.6,3.65c7.49,2.44,13.58,5.45,18.25,9.05
			c4.67,3.6,8.03,7.5,10.08,11.68c2.04,4.19,3.07,8.03,3.07,11.54c0,2.92-0.58,5.84-1.75,8.76c-1.17,2.92-2.87,5.65-5.11,8.18
			c-2.24,2.53-4.87,4.58-7.89,6.13c-3.02,1.56-6.28,2.34-9.78,2.34c-6.23,0-11.54-1.9-15.92-5.7c-4.38-3.8-6.57-9.59-6.57-17.38
			c0-3.31,0.63-6.23,1.9-8.76c1.26-2.53,2.53-4.77,3.8-6.72c1.26-1.94,2.29-3.6,3.07-4.97c0.78-1.36,0.68-2.43-0.29-3.21
			c-0.98-0.78-3.02-1.36-6.13-1.75c-3.12-0.39-7.99-0.58-14.6-0.58c-5.26,0-10.42,0.49-15.48,1.46c-5.07,0.98-9.59,2.48-13.58,4.53
			c-3.99,2.04-7.21,4.67-9.64,7.89c-2.44,3.21-3.65,6.96-3.65,11.24c0,3.9,1.51,7.5,4.53,10.81c3.02,3.31,6.86,6.33,11.54,9.05
			c4.67,2.73,9.88,5.31,15.62,7.74c5.74,2.44,11.24,4.72,16.5,6.86c7.01,2.92,14.41,6.13,22.2,9.64c7.79,3.5,14.94,7.55,21.47,12.12
			c6.52,4.58,11.92,9.69,16.21,15.33c4.28,5.65,6.43,12.07,6.43,19.28c0,7.21-1.9,13.83-5.7,19.86c-3.8,6.04-9.1,11.2-15.92,15.48
			c-6.82,4.29-14.85,7.64-24.09,10.08c-9.25,2.43-19.42,3.65-30.52,3.65c-12.66,0-23.22-1.27-31.69-3.8
			c-8.47-2.53-15.29-5.84-20.44-9.93c-5.16-4.09-8.86-8.57-11.1-13.43c-2.24-4.86-3.36-9.64-3.36-14.31
			c0-8.95,2.72-15.96,8.18-21.03c5.45-5.06,11.68-7.59,18.69-7.59c5.45,0,10.08,1.12,13.87,3.36c3.8,2.24,6.86,4.92,9.2,8.03
			c2.34,3.12,4.04,6.28,5.11,9.49c1.07,3.21,1.61,5.7,1.61,7.45l-2.63,2.34c-1.56-2.72-3.41-5.16-5.55-7.3
			c-1.95-1.75-4.23-3.4-6.86-4.97c-2.63-1.56-5.7-2.34-9.2-2.34c-3.7,0-6.57,1.42-8.62,4.27c-2.04,2.84-3.07,6.03-3.07,9.56
			c0,3.33,1.07,6.71,3.21,10.14c2.14,3.43,5.06,6.52,8.76,9.26c3.7,2.75,7.98,4.95,12.85,6.62c4.86,1.67,10.12,2.5,15.77,2.5
			c6.03,0,11.73-0.34,17.09-1.02c5.35-0.68,10.08-1.9,14.16-3.66c4.09-1.75,7.35-4.09,9.78-7.02c2.43-2.92,3.65-6.63,3.65-11.12
			c0-4.87-1.41-9.17-4.23-12.87c-2.82-3.71-6.72-7.12-11.68-10.24c-4.97-3.12-10.91-6.19-17.82-9.21
			c-6.91-3.02-14.56-6.48-22.93-10.39c-15.77-7.41-27.45-14.97-35.05-22.68C641.57,985.27,637.78,975.85,637.78,964.74z"/>
		<path class="st0" d="M906.18,1067.16c0,3.12,0.63,6.38,1.9,9.78c1.26,3.41,3.55,5.7,6.86,6.86c1.56,0.39,2.72,0.58,3.5,0.58
			l0.29,3.8c-0.98,1.17-2.34,2.19-4.09,3.07c-1.75,0.88-3.55,1.61-5.4,2.19c-1.85,0.58-3.75,1.02-5.7,1.31
			c-1.95,0.29-3.61,0.44-4.96,0.44c-4.67,0-9.1-0.98-13.29-2.92c-4.19-1.94-7.64-4.57-10.37-7.89c-3.31,3.31-7.35,6.13-12.12,8.47
			c-4.77,2.34-10.37,3.5-16.79,3.5c-12.85,0-22.69-2.53-29.5-7.59c-6.82-5.06-10.22-12.36-10.22-21.9c0-8.37,2.34-15.09,7.01-20.15
			c4.67-5.06,10.27-9.05,16.79-11.97c6.52-2.92,13.43-4.91,20.74-5.99c7.3-1.07,13.58-1.7,18.84-1.9v-10.81
			c0-2.34-0.39-4.67-1.17-7.01c-0.78-2.34-1.95-4.43-3.5-6.28c-1.56-1.85-3.5-3.4-5.84-4.67c-2.34-1.26-5.16-1.9-8.47-1.9
			c-4.87,0-9.01,1.27-12.41,3.8c-3.41,2.53-4.92,6.04-4.53,10.51c0.19,3.12-0.83,6.04-3.07,8.76c-2.24,2.73-5.5,4.09-9.78,4.09
			c-3.5,0-6.57-1.07-9.2-3.21c-2.63-2.14-4.14-4.77-4.53-7.89c-0.2-3.5,0.88-7.01,3.21-10.51c2.34-3.5,5.64-6.72,9.93-9.64
			c4.28-2.92,9.24-5.26,14.89-7.01c5.64-1.75,11.68-2.63,18.11-2.63c8.76,0,16.4,1.27,22.93,3.8c6.52,2.53,11.92,5.8,16.21,9.78
			c4.28,3.99,7.54,8.37,9.78,13.14c2.24,4.77,3.55,9.4,3.94,13.87c0.39,7.21,0.48,14.36,0.29,21.47
			C906.27,1051.64,906.18,1059.18,906.18,1067.16z M854.77,1080.3c2.72,0,5.4-0.53,8.03-1.61c2.63-1.07,5.11-2.38,7.45-3.94
			c-0.2-0.97-0.34-1.99-0.44-3.07c-0.1-1.07-0.15-2.19-0.15-3.36v-31.25c-4.48,1.17-8.67,2.77-12.56,4.82
			c-3.9,2.04-7.3,4.34-10.22,6.86c-2.92,2.53-5.16,5.21-6.72,8.03c-1.56,2.82-2.24,5.69-2.04,8.62c0.39,3.7,1.7,7.11,3.94,10.22
			C844.31,1078.75,848.54,1080.3,854.77,1080.3z"/>
		<path class="st0" d="M948.23,981.88c-5.07-0.97-9.3-2.29-12.7-3.94c-3.4-1.65-6.23-3.45-8.47-5.4c-2.24-1.94-3.84-3.75-4.82-5.4
			c-0.97-1.65-1.46-2.97-1.46-3.94l2.34-2.63c0.98,1.17,3.46,3.12,7.45,5.84c3.99,2.73,9.88,4.67,17.67,5.84v-38.55
			c0-2.92,0.44-6.76,1.31-11.54c0.88-4.77,2.53-9.35,4.97-13.73c2.43-4.38,5.74-8.18,9.93-11.39c4.18-3.21,9.59-4.82,16.21-4.82
			c8.95,0,15.96,1.56,21.03,4.67c5.06,3.12,8.86,6.67,11.39,10.66c2.53,3.99,4.09,7.94,4.67,11.83c0.58,3.9,0.88,6.62,0.88,8.18
			c0,5.45-0.98,10.86-2.92,16.21c-1.95,5.36-4.58,10.37-7.89,15.04c-3.31,4.67-7.3,8.86-11.97,12.56c-4.67,3.7-9.74,6.53-15.19,8.47
			v83.24c0,6.23,0.78,10.81,2.34,13.73c1.56,2.92,3.4,4.96,5.55,6.13c2.14,1.36,4.77,1.85,7.89,1.46l1.17,2.92
			c-1.56,1.75-3.41,3.31-5.55,4.67c-1.95,1.17-4.24,2.19-6.86,3.07c-2.63,0.88-5.89,1.31-9.78,1.31c-3.31,0-6.57-0.54-9.78-1.61
			c-3.21-1.07-6.09-2.92-8.62-5.55c-2.53-2.63-4.63-6.08-6.28-10.37c-1.66-4.28-2.48-9.64-2.48-16.06V981.88z M980.65,966.7
			c6.81-4.48,11.92-10.22,15.33-17.23c3.4-7.01,5.11-13.92,5.11-20.74c0-5.84-1.07-10.17-3.21-13c-2.14-2.82-4.48-4.33-7.01-4.53
			c-2.53-0.19-4.87,0.98-7.01,3.5c-2.14,2.53-3.21,6.23-3.21,11.1V966.7z"/>
		<path class="st0" d="M1084.91,982.76c8.37,0,16.36,1.17,23.95,3.5c7.59,2.34,14.41,5.65,20.44,9.93
			c6.03,4.29,10.9,9.49,14.6,15.62c3.7,6.13,5.84,13,6.43,20.59c0.78,10.51-0.63,19.76-4.24,27.75c-3.6,7.99-8.52,14.65-14.75,20.01
			c-6.23,5.36-13.29,9.4-21.17,12.12c-7.89,2.72-15.82,4.09-23.8,4.09c-7.99,0-15.77-1.17-23.36-3.5
			c-7.59-2.34-14.41-5.79-20.44-10.37c-6.04-4.57-11-10.22-14.89-16.94c-3.9-6.72-6.13-14.36-6.72-22.93
			c-0.58-8.57,0.73-16.5,3.94-23.8c3.21-7.3,7.78-13.63,13.73-18.98c5.94-5.35,12.9-9.54,20.88-12.56
			C1067.49,984.27,1075.95,982.76,1084.91,982.76z M1089.88,1084.69c4.86,0,8.86-1.02,11.97-3.07c3.11-2.04,5.45-5.16,7.01-9.35
			c1.56-4.18,2.48-9.44,2.77-15.77c0.29-6.33,0.15-13.77-0.44-22.34c-0.98-11.68-3.8-21.22-8.47-28.62
			c-4.67-7.4-11.78-11.1-21.32-11.1c-8.76,0-14.75,4.23-17.96,12.7c-3.21,8.47-4.34,20.11-3.36,34.9
			c0.97,12.85,3.84,23.17,8.62,30.96C1073.47,1080.79,1080.53,1084.69,1089.88,1084.69z"/>
		<path class="st0" d="M1185.09,1090.82v-84.4c0-5.06-0.98-8.32-2.92-9.78c-1.95-1.46-4.28-2.19-7.01-2.19v-3.8
			c1.94-1.56,3.99-2.92,6.13-4.09c1.94-0.97,4.13-1.9,6.57-2.77c2.43-0.88,5.01-1.31,7.74-1.31c5.45,0,10.22,1.61,14.31,4.82
			c4.09,3.21,6.52,9.2,7.3,17.96c1.74-2.14,3.92-4.53,6.54-7.16c2.61-2.63,5.62-5.11,9.01-7.45c3.39-2.34,7.12-4.28,11.19-5.84
			c4.07-1.56,8.43-2.34,13.09-2.34c3.68,0,7.17,0.54,10.47,1.61c3.3,1.07,6.25,2.82,8.87,5.26c2.61,2.44,4.7,5.75,6.25,9.93
			c1.55,4.19,2.33,9.49,2.33,15.92v59.29c0,3.7,0.73,6.33,2.19,7.89c1.46,1.56,4.23,2.34,8.32,2.34v3.8
			c-1.95,1.56-3.99,2.92-6.13,4.09c-1.95,0.97-4.08,1.85-6.4,2.63c-2.32,0.78-4.83,1.17-7.53,1.17c-8.3,0-14.19-2.53-17.66-7.59
			c-3.47-5.06-5.21-11.78-5.21-20.15v-53.15c0-5.26-0.83-8.86-2.48-10.81c-1.66-1.94-3.94-2.92-6.86-2.92
			c-2.15,0-4.43,0.73-6.86,2.19c-2.44,1.46-4.82,3.21-7.16,5.26c-2.34,2.04-4.53,4.19-6.57,6.43c-2.04,2.24-3.75,4.14-5.11,5.7
			v69.51H1185.09z"/>
	</g>
</g>
<g>
	<g>
		<circle class="st0" cx="285.32" cy="966.7" r="236.84"/>
		<path class="st0" d="M285.32,1211.9c-135.2,0-245.2-110-245.2-245.2c0-135.2,110-245.2,245.2-245.2s245.2,110,245.2,245.2
			C530.52,1101.9,420.52,1211.9,285.32,1211.9z M285.32,738.21c-125.99,0-228.49,102.5-228.49,228.49
			c0,125.99,102.5,228.49,228.49,228.49s228.49-102.5,228.49-228.49C513.81,840.71,411.31,738.21,285.32,738.21z"/>
		<path class="st1" d="M385.6,762.98c64.36,40.01,107.22,111.36,107.22,192.72c0,125.24-101.53,226.78-226.78,226.78
			c-38.13,0-74.05-9.42-105.59-26.05c34.71,21.58,75.67,34.06,119.55,34.06c125.24,0,226.78-101.53,226.78-226.78
			C506.79,876.59,457.66,800.96,385.6,762.98z"/>
	</g>
	<path class="st2" d="M290.81,773.49c1.51,6.71-2.38,13.45-8.95,15.51c-1.35-3.24-1.11-6.93,0.64-9.97
		C284.25,775.98,287.33,773.94,290.81,773.49 M256.66,790.22c3.95,5.67,11.59,7.35,17.57,3.88c-1.48-3.2-4.38-5.53-7.83-6.29
		C262.95,787.04,259.35,787.94,256.66,790.22z M267.6,807.95c4.51,5.16,12.23,5.99,17.74,1.92c-1.81-3-4.91-4.97-8.39-5.35
		C273.47,804.14,270.01,805.41,267.6,807.95z M300.43,788.93c1.52,6.79-2.42,13.61-9.06,15.69c-1.37-3.28-1.14-7.01,0.64-10.09
		C293.8,791.45,296.91,789.38,300.43,788.93z M276.93,822.91c4.51,5.15,12.23,5.99,17.73,1.92c-1.81-3-4.91-4.97-8.39-5.35
		C282.79,819.1,279.33,820.37,276.93,822.91z M309.93,804.87c1.52,6.79-2.42,13.61-9.06,15.69c-1.37-3.28-1.13-7.01,0.65-10.09
		C303.3,807.39,306.41,805.32,309.93,804.87z M284.01,882.64c3.35,6,1.55,13.57-4.15,17.41c-2.23-2.72-3.06-6.32-2.24-9.73
		C278.43,886.9,280.8,884.06,284.01,882.64z M256.03,908.41c5.41,4.3,13.21,3.74,17.95-1.29c-2.34-2.65-5.77-4.05-9.29-3.8
		C261.17,903.57,257.96,905.46,256.03,908.41z M271.59,922.29c5.79,3.65,13.42,2.25,17.54-3.22c-2.58-2.36-6.12-3.37-9.57-2.74
		C276.12,916.96,273.16,919.17,271.59,922.29z M297.63,894.7c3.39,6.07,1.57,13.73-4.21,17.61c-2.25-2.75-3.08-6.39-2.26-9.85
		C291.98,899,294.38,896.13,297.63,894.7z M284.79,933.97c5.79,3.65,13.43,2.25,17.55-3.22c-2.59-2.36-6.13-3.37-9.58-2.74
		C289.33,928.65,286.37,930.85,284.79,933.97z M311.28,907.27c3.39,6.07,1.57,13.73-4.21,17.61c-2.25-2.75-3.08-6.39-2.26-9.85
		C305.63,911.57,308.03,908.7,311.28,907.27z M182.95,1081.94c109.08-18.84,105.95,73.95,11.1,53.53
		c-28.59-6.15-53.47-23.6-68.98-48.39c31.45,69.33,116.53,102.62,184.5,66.34c16.84-8.99,30.45-22.68,40.31-39.8
		c7.65-11.87,12.6-25.09,14.73-38.76c0.08-0.51,0.15-1.02,0.23-1.54c3.19-15.48,4.2-32.31,2.83-49.98
		c-0.75-9.74-2.23-19.74-4.47-29.93c20.24-2.9,35.63-20.13,35.92-40.88c-11.07-1.19-22.06,2.86-29.71,10.94
		c-4.78,5.06-7.92,11.33-9.16,18c-2.19-7.95-4.83-15.99-7.95-24.08h0.01l-0.01-0.02c-1.05-2.71-2.14-5.43-3.3-8.15
		c-7.35-19.77-10.55-40.61-9.62-61.28c1.02-23.02,7.17-45.81,18.34-66.64c18.14-7.94,28.45-27.77,24.04-47.51
		c-11.04,1.41-20.79,7.9-26.36,17.54c-4.85,8.41-6.04,18.37-3.41,27.59c-11.42,21.5-17.71,45-18.77,68.75
		c-0.47,10.46,0.08,20.96,1.65,31.36c-7.98-28.69-17.25-55.25-28.14-79.05c-12.57-27.49-27.3-51.33-44.69-70.57l-0.95,0.86
		c17.29,19.14,31.94,42.87,44.46,70.24c10.62,23.21,19.69,49.04,27.53,76.94c-13.25-22.86-30.45-45.6-51.95-67.36
		c-0.09-19.98-14.43-37.39-34.47-41c-2.98,10.73-0.79,22.22,5.95,31.09c5.79,7.63,14.34,12.55,23.71,13.8
		c31.07,31.34,53.02,64.71,66.93,97.48c1.04,2.78,2.15,5.54,3.35,8.28c8.46,22,13.33,43.62,14.91,64.04
		c0.16,2.13,0.3,4.25,0.38,6.35c-3.06-20.78-13.17-44.04-27.45-65.96c-19.2-29.47-45.95-56.54-73.22-71.88l-0.63,1.12
		c27.09,15.25,53.68,42.16,72.77,71.46c13.05,20.04,22.6,41.18,26.4,60.46c-3.87-10.61-9.48-20.42-16.54-29.04
		c-6.36-7.78-13.91-14.59-22.41-20.19c-3.23-19.78-20.21-34.75-40.62-35.09c-1.22,11.06,2.78,22.06,10.85,29.74
		c6.86,6.54,15.99,10.03,25.35,9.83c8.38,5.36,15.82,12,22.06,19.63c8.24,10.07,14.39,21.87,17.87,34.7
		c3.33,12.23,4.11,24.84,2.47,37.11c-0.89,4.32-1.96,8.55-3.2,12.64c-2.75-18.04-17.11-32.66-35.86-35.17
		c-2.49,10.85,0.22,22.24,7.35,30.79c6.42,7.71,15.74,12.32,25.65,12.81c-0.82,2.19-1.7,4.35-2.64,6.45
		c-9.44,21.31-24.2,38.18-43.41,48.43c-16,8.54-36.06,14.98-58.39,14.69c61.74-12.49,96.52-94.09-21.2-223.45
		c-29.5-32.41-58.38-64.15-66.97-102.94c-2.21,6.26-3.81,12.79-4.82,19.55c-1.99,13.22-1.44,24.15-0.18,37.34
		c0.38,3.32,0.54,6.41,0.49,9.28c-4.75,4.83-13.38,5.18-21.44,4.88c6.71,1.8,14.32,3.93,20.75,2.29l-0.2,1.03
		c-1.99,9.29-17.89,25.18-31.57,37.62c-13.61,12.36-22.61,20.19,0.13,27.7c6.27,2.07,11.41,4.47,6.66,11.9
		c-6.06,9.5-14.6,10.29,0.06,20c4.54,3,9.94,5.55,13.75,6.4c-4.5-0.87-14.81,2.98-14.85,7.37c-0.09,8.83,17.56,6.54,9.01,36.59
		c-2.33,8.18-4.62,16.21,4.74,21.52C155.42,1086.7,168.65,1084.41,182.95,1081.94z"/>
</g>
</svg>
