<?xml version="1.0" encoding="utf-8"?>
<!-- Generator: Adobe Illustrator 24.3.0, SVG Export Plug-In . SVG Version: 6.00 Build 0)  -->
<svg version="1.1" id="Layer_1" xmlns="http://www.w3.org/2000/svg" xmlns:xlink="http://www.w3.org/1999/xlink" x="0px" y="0px"
	 viewBox="0 0 1204.26 297.87" style="enable-background:new 0 0 1204.26 297.87;" xml:space="preserve">
<style type="text/css">
	.st0{fill:#C4A159;}
	.st1{fill:#FFFFFF;}
	.st2{fill-rule:evenodd;clip-rule:evenodd;fill:#F7F7FB;}
</style>
<g>
	<g>
		<g>
			<g>
				<circle class="st0" cx="152.93" cy="150.93" r="130.34"/>
			</g>
			<g>
				<path class="st0" d="M152.93,285.87C78.53,285.87,18,225.33,18,150.93c0-74.4,60.53-134.94,134.94-134.94
					s134.94,60.53,134.94,134.94C287.87,225.33,227.33,285.87,152.93,285.87z M152.93,25.19C83.6,25.19,27.19,81.6,27.19,150.93
					c0,69.33,56.41,125.74,125.74,125.74s125.74-56.41,125.74-125.74C278.67,81.6,222.26,25.19,152.93,25.19z"/>
			</g>
			<g>
				<path class="st1" d="M208.12,38.82c35.42,22.02,59,61.28,59,106.06c0,68.92-55.87,124.8-124.8,124.8
					c-20.98,0-40.75-5.19-58.11-14.34c19.1,11.88,41.64,18.74,65.79,18.74c68.92,0,124.8-55.87,124.8-124.8
					C274.81,101.34,247.77,59.73,208.12,38.82z"/>
			</g>
		</g>
		<g>
			<path class="st2" d="M155.95,44.61c0.83,3.69-1.31,7.4-4.93,8.53c-0.74-1.78-0.61-3.81,0.35-5.49
				C152.34,45.98,154.04,44.85,155.95,44.61 M137.16,53.81c2.17,3.12,6.38,4.05,9.67,2.14c-0.81-1.76-2.41-3.04-4.31-3.46
				C140.62,52.06,138.64,52.56,137.16,53.81z M143.18,63.57c2.48,2.84,6.73,3.3,9.76,1.05c-1-1.65-2.7-2.74-4.62-2.94
				C146.41,61.47,144.51,62.17,143.18,63.57z M161.25,53.1c0.84,3.74-1.33,7.49-4.98,8.63c-0.75-1.81-0.63-3.86,0.35-5.55
				C157.6,54.49,159.31,53.35,161.25,53.1z M148.32,71.8c2.48,2.84,6.73,3.3,9.76,1.05c-1-1.65-2.7-2.74-4.62-2.95
				C151.54,69.71,149.64,70.41,148.32,71.8z M166.47,61.88c0.84,3.74-1.33,7.49-4.98,8.63c-0.75-1.8-0.62-3.86,0.36-5.55
				C162.82,63.26,164.54,62.12,166.47,61.88z M152.21,104.68c1.85,3.3,0.85,7.47-2.28,9.58c-1.22-1.49-1.68-3.48-1.23-5.36
				C149.14,107.02,150.44,105.46,152.21,104.68z M136.81,118.85c2.98,2.37,7.27,2.06,9.88-0.71c-1.29-1.46-3.18-2.23-5.11-2.09
				C139.64,116.19,137.88,117.23,136.81,118.85z M145.37,126.49c3.19,2.01,7.38,1.24,9.65-1.77c-1.42-1.3-3.37-1.85-5.27-1.51
				C147.87,123.56,146.24,124.77,145.37,126.49z M159.7,111.31c1.87,3.34,0.86,7.56-2.32,9.69c-1.24-1.51-1.7-3.52-1.24-5.42
				C156.6,113.68,157.91,112.1,159.7,111.31z M152.64,132.92c3.19,2.01,7.39,1.24,9.66-1.77c-1.43-1.3-3.37-1.85-5.27-1.51
				C155.14,129.99,153.51,131.2,152.64,132.92z M167.21,118.22c1.87,3.34,0.86,7.56-2.32,9.69c-1.24-1.51-1.7-3.52-1.24-5.42
				C164.11,120.6,165.43,119.02,167.21,118.22z M96.59,214.35c60.03-10.37,58.3,40.7,6.11,29.46
				c-15.73-3.38-29.42-12.99-37.96-26.63c17.31,38.15,64.13,56.47,101.53,36.51c9.27-4.95,16.75-12.48,22.18-21.9
				c4.21-6.53,6.93-13.81,8.11-21.33c0.04-0.28,0.08-0.56,0.12-0.85c1.76-8.52,2.31-17.78,1.56-27.5
				c-0.41-5.36-1.23-10.87-2.46-16.47c11.14-1.59,19.61-11.08,19.77-22.5c-6.09-0.65-12.14,1.57-16.35,6.02
				c-2.63,2.78-4.36,6.23-5.04,9.9c-1.2-4.38-2.66-8.8-4.38-13.25h0l0-0.01c-0.58-1.49-1.18-2.99-1.81-4.48
				c-4.05-10.88-5.8-22.35-5.29-33.72c0.56-12.67,3.95-25.21,10.09-36.67c9.98-4.37,15.66-15.28,13.23-26.14
				c-6.08,0.78-11.44,4.35-14.5,9.65c-2.67,4.63-3.32,10.11-1.88,15.18c-6.29,11.83-9.74,24.76-10.33,37.83
				c-0.26,5.75,0.04,11.54,0.91,17.26c-4.39-15.79-9.49-30.4-15.49-43.5c-6.92-15.13-15.02-28.25-24.59-38.84l-0.52,0.47
				c9.52,10.53,17.58,23.59,24.47,38.65c5.84,12.77,10.84,26.99,15.15,42.34c-7.29-12.58-16.75-25.09-28.59-37.07
				c-0.05-10.99-7.94-20.58-18.97-22.56c-1.64,5.9-0.43,12.23,3.27,17.11c3.18,4.2,7.89,6.91,13.05,7.59
				c17.1,17.25,29.18,35.61,36.83,53.64c0.57,1.53,1.18,3.05,1.84,4.56c4.66,12.11,7.34,24,8.21,35.24c0.09,1.17,0.16,2.34,0.21,3.5
				c-1.69-11.44-7.25-24.24-15.1-36.3c-10.57-16.22-25.29-31.11-40.29-39.56l-0.35,0.62c14.91,8.39,29.54,23.2,40.05,39.33
				c7.18,11.03,12.43,22.66,14.53,33.27c-2.13-5.84-5.22-11.24-9.1-15.98c-3.5-4.28-7.65-8.03-12.33-11.11
				c-1.78-10.89-11.12-19.12-22.36-19.31c-0.67,6.09,1.53,12.14,5.97,16.36c3.78,3.6,8.8,5.52,13.95,5.41
				c4.61,2.95,8.7,6.6,12.14,10.8c4.54,5.54,7.92,12.03,9.84,19.1c1.83,6.73,2.26,13.67,1.36,20.42c-0.49,2.38-1.08,4.7-1.76,6.95
				c-1.51-9.93-9.42-17.97-19.74-19.35c-1.37,5.97,0.12,12.24,4.04,16.94c3.53,4.25,8.66,6.78,14.12,7.05
				c-0.45,1.21-0.94,2.39-1.45,3.55c-5.19,11.73-13.32,21.01-23.89,26.65c-8.8,4.7-19.84,8.24-32.13,8.08
				c33.98-6.87,53.12-51.78-11.66-122.97c-16.24-17.84-32.13-35.3-36.86-56.65c-1.21,3.44-2.1,7.04-2.65,10.76
				c-1.1,7.28-0.79,13.29-0.1,20.55c0.21,1.83,0.3,3.53,0.27,5.11c-2.61,2.66-7.36,2.85-11.8,2.69c3.69,0.99,7.88,2.16,11.42,1.26
				l-0.11,0.57c-1.1,5.11-9.84,13.86-17.37,20.7c-7.49,6.8-12.44,11.11,0.07,15.24c3.45,1.14,6.28,2.46,3.66,6.55
				c-3.34,5.23-8.03,5.66,0.03,11c2.5,1.65,5.47,3.06,7.57,3.52c-2.47-0.48-8.15,1.64-8.17,4.06c-0.05,4.86,9.67,3.6,4.96,20.13
				c-1.28,4.5-2.54,8.92,2.61,11.84C81.45,216.97,88.73,215.71,96.59,214.35z"/>
		</g>
	</g>
	<g>
		<path class="st0" d="M492.27,249c1.55,1.84,2.32,4.2,2.32,7.09c0,3.71-1.37,6.57-4.12,8.57c-2.75,2-6.8,3-12.16,3h-19.93v-43.33
			h18.69c4.83,0,8.57,0.97,11.24,2.91c2.66,1.94,3.99,4.68,3.99,8.23c0,2.39-0.59,4.42-1.76,6.1c-1.18,1.67-2.8,2.92-4.86,3.75
			C488.53,245.94,490.73,247.17,492.27,249z M462.97,228.11v15.72h13.8c3.51,0,6.21-0.67,8.11-2.01c1.9-1.34,2.85-3.29,2.85-5.85
			s-0.95-4.51-2.85-5.85c-1.9-1.34-4.6-2.01-8.11-2.01H462.97z M487.04,261.91c1.98-1.32,2.97-3.38,2.97-6.19
			c0-5.41-3.92-8.11-11.76-8.11h-15.29v16.28h15.29C482.13,263.89,485.06,263.23,487.04,261.91z"/>
		<path class="st0" d="M544.05,263.7v3.96h-30.64v-43.33h29.72v3.96h-25.14v15.42h22.41v3.9h-22.41v16.1H544.05z"/>
		<path class="st0" d="M590.35,256.09h-24.14l-5.2,11.57h-4.77l19.81-43.33h4.52l19.8,43.33h-4.83L590.35,256.09z M588.68,252.38
			l-10.4-23.27l-10.4,23.27H588.68z"/>
		<path class="st0" d="M619.31,263.21c-3.13-3.22-4.7-7.9-4.7-14.05v-24.82h4.58v24.63c0,5.04,1.14,8.79,3.41,11.27
			c2.27,2.48,5.55,3.71,9.84,3.71c4.33,0,7.63-1.24,9.9-3.71c2.27-2.48,3.41-6.23,3.41-11.27v-24.63h4.46v24.82
			c0,6.15-1.56,10.83-4.67,14.05c-3.12,3.22-7.48,4.83-13.09,4.83C626.82,268.04,622.45,266.43,619.31,263.21z"/>
		<path class="st0" d="M679.91,228.3h-15.23v-3.96h35.03v3.96h-15.22v39.37h-4.58V228.3z"/>
		<path class="st0" d="M715.37,224.34h4.58v43.33h-4.58V224.34z"/>
		<path class="st0" d="M747.01,228.3v17.03h22.41v3.96h-22.41v18.38h-4.58v-43.33h29.72v3.96H747.01z"/>
		<path class="st0" d="M794.29,263.21c-3.13-3.22-4.7-7.9-4.7-14.05v-24.82h4.58v24.63c0,5.04,1.14,8.79,3.41,11.27
			c2.27,2.48,5.55,3.71,9.84,3.71c4.33,0,7.63-1.24,9.9-3.71c2.27-2.48,3.41-6.23,3.41-11.27v-24.63h4.46v24.82
			c0,6.15-1.56,10.83-4.67,14.05c-3.12,3.22-7.48,4.83-13.09,4.83C801.8,268.04,797.43,266.43,794.29,263.21z"/>
		<path class="st0" d="M847.34,224.34h4.58v39.37h24.26v3.96h-28.84V224.34z"/>
		<path class="st0" d="M916.73,224.34h4.58v39.37h24.26v3.96h-28.84V224.34z"/>
		<path class="st0" d="M961.54,224.34h4.58v43.33h-4.58V224.34z"/>
		<path class="st0" d="M993.16,228.3v17.03h22.41v3.96h-22.41v18.38h-4.58v-43.33h29.72v3.96H993.16z"/>
		<path class="st0" d="M1066.76,263.7v3.96h-30.64v-43.33h29.72v3.96h-25.14v15.42h22.41v3.9h-22.41v16.1H1066.76z"/>
	</g>
	<g>
		<path class="st0" d="M340.09,56.79c1.03-0.72,2.12-1.34,3.25-1.85c1.03-0.52,2.22-0.96,3.56-1.31c1.34-0.36,2.84-0.54,4.49-0.54
			c3.1,0,5.55,0.47,7.36,1.4c1.81,0.93,3.12,2.27,3.95,4.03c2.17-1.34,4.98-2.58,8.45-3.72c3.46-1.14,7.51-1.7,12.17-1.7
			c4.75,0,8.99,0.64,12.7,1.93c3.72,1.29,6.87,3.01,9.46,5.17c2.58,2.16,4.52,4.66,5.81,7.49c1.29,2.83,1.94,5.79,1.94,8.88
			c0,4.43-1.06,8.37-3.18,11.81c-2.12,3.45-4.98,6.51-8.6,9.19c2.27,1.24,4.52,2.69,6.74,4.34c2.22,1.65,4.18,3.51,5.89,5.58
			c1.7,2.07,3.07,4.24,4.11,6.51c1.03,2.27,1.55,4.65,1.55,7.13c0,4.03-0.88,7.65-2.63,10.85c-1.76,3.2-4.16,5.91-7.2,8.14
			c-3.05,2.22-6.66,3.93-10.85,5.11c-4.18,1.19-8.75,1.78-13.71,1.78c-4.96,0-9.22-0.47-12.78-1.4c-3.56-0.93-6.38-1.81-8.44-2.63
			v2.95h-18.13V63.44c0-1.65-0.54-2.83-1.63-3.56c-1.09-0.72-2.51-1.08-4.26-1.08V56.79z M378.2,106.23c-2.89,0-5.17-0.57-6.82-1.71
			c-1.65-1.14-2.48-2.74-2.48-4.8h0.15c0-2.38,1.03-4.31,3.1-5.81c2.07-1.5,4.6-2.25,7.59-2.25c2.17,0,4.18,0.13,6.04,0.39
			c1.86,0.26,3.56,0.64,5.11,1.16c1.55-2.07,2.79-4.47,3.72-7.21c0.93-2.74,1.39-5.91,1.39-9.53c0-4.65-1.45-8.42-4.34-11.31
			s-7.28-4.34-13.17-4.34c-3.21,0-5.99,0.21-8.37,0.62c-2.38,0.41-4.44,0.93-6.2,1.55c0.1,0.41,0.15,0.83,0.15,1.24
			c0,0.41,0,0.83,0,1.24v69.58c1.45,0.62,3.41,1.19,5.89,1.7c2.48,0.52,5.68,0.77,9.61,0.77c2.79,0,5.48-0.44,8.06-1.32
			c2.58-0.88,4.83-2.14,6.74-3.79c1.91-1.65,3.44-3.59,4.57-5.81c1.13-2.22,1.7-4.73,1.7-7.51c0-3.62-0.62-6.92-1.86-9.92
			c-1.24-2.99-3-5.22-5.27-6.66c-3,1.45-5.84,2.43-8.52,2.94C382.33,105.97,380.06,106.23,378.2,106.23z"/>
		<path class="st0" d="M467.3,88.41c4.03,0,8.06,0.75,12.09,2.25c4.03,1.5,7.36,3.41,9.99,5.73c2.63,2.32,4.2,4.96,4.73,7.9
			c0.52,2.94-0.72,5.81-3.72,8.6c-1.55,1.45-3.87,2.61-6.97,3.49c-3.1,0.88-6.48,1.53-10.15,1.94c-3.67,0.41-7.39,0.67-11.16,0.78
			c-3.77,0.1-7.1,0.15-9.99,0.15c0.52,5.37,2.38,9.69,5.58,12.94c3.2,3.25,8,4.88,14.41,4.88c4.03,0,7.46-0.59,10.31-1.78
			c2.84-1.19,5.14-2.51,6.89-3.95c2.06-1.76,3.77-3.72,5.11-5.89l1.7,0.31c0.21,2.79-0.29,5.58-1.47,8.37
			c-1.19,2.79-2.97,5.27-5.35,7.44c-2.38,2.17-5.37,3.93-8.99,5.27c-3.62,1.34-7.8,2.01-12.55,2.01c-4.24,0-8.34-0.54-12.32-1.63
			c-3.97-1.08-7.57-2.79-10.77-5.11c-3.21-2.32-5.76-5.27-7.67-8.83c-1.92-3.56-2.87-7.88-2.87-12.94c0-4.44,0.82-8.6,2.48-12.47
			c1.65-3.87,3.95-7.26,6.9-10.15c2.94-2.89,6.45-5.17,10.54-6.82C458.13,89.23,462.55,88.41,467.3,88.41z M467.77,95.38
			c-2.28,0-4.32,0.57-6.12,1.71c-1.81,1.14-3.39,2.63-4.73,4.49c-1.34,1.86-2.43,3.93-3.26,6.2c-0.82,2.27-1.34,4.55-1.55,6.82
			c1.86-0.1,3.85-0.33,5.96-0.7c2.12-0.36,4.19-0.8,6.2-1.32c2.01-0.52,3.87-1.14,5.58-1.86c1.7-0.72,3.02-1.55,3.95-2.48
			c1.14-1.14,1.96-2.45,2.48-3.95c0.52-1.5,0.59-2.89,0.23-4.18c-0.36-1.29-1.24-2.4-2.63-3.33
			C472.49,95.84,470.45,95.38,467.77,95.38z"/>
		<path class="st0" d="M564.15,133.34c0,1.66,0.34,3.39,1.01,5.19c0.67,1.81,1.88,3.02,3.64,3.64c0.83,0.21,1.45,0.31,1.86,0.31
			l0.16,2.01c-0.52,0.62-1.24,1.16-2.17,1.63c-0.93,0.47-1.89,0.85-2.87,1.16c-0.98,0.31-1.99,0.54-3.02,0.7
			c-1.03,0.16-1.91,0.23-2.63,0.23c-2.48,0-4.83-0.52-7.05-1.55c-2.22-1.03-4.05-2.42-5.5-4.18c-1.76,1.76-3.9,3.25-6.43,4.49
			c-2.53,1.24-5.5,1.86-8.91,1.86c-6.82,0-12.03-1.34-15.65-4.03c-3.62-2.69-5.43-6.56-5.43-11.62c0-4.44,1.24-8,3.72-10.69
			c2.48-2.69,5.45-4.8,8.91-6.35c3.46-1.55,7.13-2.61,11-3.18c3.87-0.57,7.21-0.9,9.99-1.01v-5.73c0-1.24-0.21-2.48-0.62-3.72
			c-0.41-1.24-1.04-2.35-1.86-3.33c-0.83-0.98-1.86-1.81-3.1-2.48c-1.24-0.67-2.74-1.01-4.49-1.01c-2.58,0-4.78,0.67-6.59,2.01
			c-1.81,1.34-2.61,3.2-2.4,5.58c0.1,1.65-0.44,3.2-1.63,4.65c-1.19,1.45-2.92,2.17-5.19,2.17c-1.86,0-3.49-0.57-4.88-1.7
			c-1.4-1.14-2.2-2.53-2.4-4.18c-0.1-1.86,0.47-3.72,1.7-5.58c1.24-1.86,3-3.56,5.27-5.11c2.27-1.55,4.9-2.79,7.9-3.72
			c3-0.93,6.2-1.4,9.61-1.4c4.65,0,8.7,0.67,12.16,2.01c3.46,1.34,6.33,3.07,8.6,5.19c2.27,2.12,4,4.44,5.19,6.97
			c1.18,2.53,1.88,4.99,2.09,7.36c0.21,3.82,0.26,7.62,0.16,11.39C564.2,125.11,564.15,129.11,564.15,133.34z M536.87,140.32
			c1.45,0,2.87-0.28,4.26-0.85c1.39-0.57,2.71-1.26,3.95-2.09c-0.11-0.52-0.18-1.06-0.23-1.63c-0.05-0.57-0.08-1.16-0.08-1.78
			v-16.58c-2.38,0.62-4.6,1.47-6.66,2.56c-2.07,1.08-3.88,2.3-5.43,3.64c-1.55,1.34-2.74,2.77-3.56,4.26
			c-0.83,1.5-1.19,3.02-1.08,4.57c0.2,1.96,0.9,3.77,2.09,5.42C531.32,139.49,533.57,140.32,536.87,140.32z"/>
		<path class="st0" d="M643.48,91.35v44.78c0,2.69,0.57,4.41,1.7,5.19c1.14,0.77,2.48,1.16,4.03,1.16v2.01
			c-1.14,0.83-2.33,1.55-3.56,2.17c-1.14,0.52-2.39,1.01-3.78,1.47c-1.39,0.47-2.8,0.7-4.23,0.7c-3.18,0-5.94-0.85-8.29-2.56
			c-2.36-1.7-3.79-4.83-4.31-9.37c-0.93,1.14-2.12,2.38-3.56,3.72c-1.45,1.34-3.13,2.63-5.04,3.87c-1.91,1.24-4.03,2.27-6.35,3.1
			c-2.33,0.83-4.78,1.24-7.36,1.24c-2.07,0-4.06-0.26-5.97-0.78c-1.91-0.52-3.56-1.42-4.96-2.71c-1.4-1.29-2.51-3.04-3.33-5.27
			c-0.83-2.22-1.24-4.98-1.24-8.29V99.87c0-3.51-1.91-5.27-5.73-5.27v-2.01c1.03-0.72,2.12-1.39,3.26-2.01
			c1.03-0.52,2.19-1.01,3.49-1.47c1.29-0.47,2.66-0.7,4.1-0.7c4.75,0,8.03,1.34,9.84,4.03c1.81,2.69,2.71,6.2,2.71,10.54v28.66
			c0,2.79,0.49,4.7,1.47,5.73c0.98,1.03,2.3,1.55,3.95,1.55c1.24,0,2.56-0.39,3.95-1.16c1.4-0.77,2.76-1.68,4.11-2.71
			c1.34-1.03,2.61-2.12,3.79-3.25c1.19-1.14,2.14-2.12,2.86-2.95v-37.5H643.48z"/>
		<path class="st0" d="M659.29,91.35h11.16v-14.1h18.44v14.1h11.32v8.06h-11.32v38.74c0,1.76,0.67,3,2.02,3.72
			c1.34,0.73,2.89,1.08,4.65,1.08l0.31,2.17c-1.14,0.72-2.33,1.34-3.56,1.86c-1.14,0.52-2.45,0.95-3.94,1.32
			c-1.49,0.36-3.1,0.54-4.85,0.54c-5.13,0-8.58-1.16-10.38-3.49c-1.79-2.32-2.68-5.45-2.68-9.37V99.41h-11.16V91.35z"/>
		<path class="st0" d="M794.41,161.39c-0.62-0.72-2.1-1.89-4.42-3.49c-2.33-1.6-5.66-2.71-9.99-3.33v19.53c0,1.86-0.23,4-0.7,6.43
			c-0.47,2.43-1.37,4.75-2.71,6.97c-1.34,2.22-3.23,4.11-5.66,5.66c-2.43,1.55-5.55,2.32-9.37,2.32c-4.96,0-8.86-0.75-11.7-2.25
			c-2.85-1.5-4.96-3.25-6.36-5.27c-1.4-2.01-2.28-3.98-2.63-5.89c-0.36-1.91-0.54-3.33-0.54-4.26c0-2.58,0.52-5.25,1.55-7.98
			c1.03-2.74,2.48-5.37,4.34-7.9c1.86-2.53,4.08-4.83,6.66-6.9c2.58-2.07,5.37-3.72,8.36-4.96v-14.56
			c-0.93,1.14-2.14,2.45-3.64,3.95c-1.5,1.5-3.28,2.97-5.35,4.42c-2.07,1.45-4.37,2.66-6.89,3.64c-2.53,0.98-5.19,1.47-7.98,1.47
			c-2.17,0-4.21-0.29-6.12-0.85c-1.91-0.57-3.62-1.53-5.11-2.87c-1.5-1.34-2.69-3.12-3.56-5.35c-0.88-2.22-1.32-4.98-1.32-8.29
			v-31.46c0-1.96-0.49-3.36-1.47-4.18c-0.98-0.83-2.66-1.24-5.03-1.24v-2.17c1.13-0.72,2.33-1.39,3.56-2.01
			c1.13-0.52,2.37-1.01,3.72-1.47c1.34-0.47,2.79-0.7,4.34-0.7c4.85,0,8.29,1.37,10.31,4.11c2.01,2.74,3.02,6.33,3.02,10.77v28.2
			c0,2.79,0.49,4.7,1.47,5.73c0.98,1.03,2.35,1.55,4.11,1.55c1.34,0,2.86-0.49,4.57-1.47c1.7-0.98,3.3-2.14,4.8-3.49
			c1.49-1.34,2.84-2.61,4.03-3.79c1.19-1.19,2.04-2.04,2.56-2.56v-36.1H780v57.33c2.89,0.52,5.34,1.29,7.36,2.33
			c2.01,1.03,3.64,2.09,4.88,3.18c1.24,1.08,2.14,2.14,2.71,3.18c0.57,1.03,0.85,1.86,0.85,2.48L794.41,161.39z M749.93,177.04
			c0,3.62,0.64,6.33,1.94,8.14c1.29,1.81,2.66,2.66,4.11,2.56c1.34,0,2.56-0.77,3.64-2.32c1.09-1.55,1.63-3.72,1.63-6.51v-20.76
			c-3.72,2.48-6.53,5.55-8.44,9.22C750.89,171.02,749.93,174.25,749.93,177.04z"/>
		<path class="st0" d="M837.4,89.3c0-3.1,0.67-6.21,2.01-9.31c1.34-3.1,3.46-5.9,6.35-8.38s6.64-4.5,11.24-6.05
			c4.59-1.55,10.1-2.33,16.5-2.33c5.78,0,10.67,0.65,14.65,1.94c3.97,1.29,7.2,2.89,9.68,4.8c2.48,1.91,4.26,3.98,5.35,6.2
			c1.09,2.22,1.63,4.26,1.63,6.12c0,1.55-0.31,3.1-0.93,4.65c-0.62,1.55-1.53,2.99-2.71,4.34c-1.19,1.34-2.58,2.43-4.19,3.25
			c-1.6,0.83-3.33,1.24-5.19,1.24c-3.31,0-6.12-1-8.44-3.02c-2.33-2.01-3.49-5.08-3.49-9.22c0-1.75,0.33-3.3,1-4.65
			c0.67-1.34,1.34-2.53,2.02-3.56c0.67-1.03,1.21-1.91,1.63-2.63c0.41-0.72,0.36-1.29-0.16-1.71c-0.52-0.41-1.6-0.72-3.25-0.93
			c-1.65-0.21-4.24-0.31-7.75-0.31c-2.79,0-5.53,0.26-8.21,0.77c-2.69,0.52-5.09,1.32-7.21,2.4c-2.12,1.09-3.82,2.48-5.11,4.18
			c-1.29,1.71-1.94,3.7-1.94,5.97c0,2.07,0.8,3.98,2.4,5.73c1.6,1.76,3.64,3.36,6.12,4.8c2.48,1.45,5.24,2.82,8.29,4.11
			c3.05,1.29,5.97,2.51,8.75,3.64c3.72,1.55,7.65,3.25,11.78,5.11c4.13,1.86,7.93,4,11.39,6.43c3.46,2.43,6.33,5.14,8.6,8.14
			c2.27,2.99,3.41,6.41,3.41,10.22c0,3.82-1.01,7.34-3.02,10.54c-2.02,3.21-4.83,5.94-8.45,8.21c-3.62,2.28-7.88,4.06-12.78,5.35
			s-10.3,1.94-16.19,1.94c-6.72,0-12.32-0.68-16.81-2.02c-4.49-1.34-8.11-3.1-10.85-5.27c-2.74-2.17-4.7-4.55-5.89-7.12
			c-1.19-2.58-1.78-5.12-1.78-7.59c0-4.75,1.44-8.47,4.34-11.16c2.89-2.69,6.2-4.03,9.92-4.03c2.89,0,5.35,0.59,7.36,1.78
			c2.01,1.19,3.64,2.61,4.88,4.26c1.24,1.65,2.14,3.33,2.71,5.03c0.57,1.7,0.85,3.02,0.85,3.95l-1.4,1.24
			c-0.83-1.44-1.81-2.74-2.94-3.87c-1.03-0.93-2.25-1.81-3.64-2.63c-1.4-0.82-3.02-1.24-4.88-1.24c-1.96,0-3.49,0.76-4.57,2.27
			c-1.08,1.51-1.63,3.2-1.63,5.07c0,1.76,0.57,3.56,1.71,5.38c1.14,1.82,2.69,3.46,4.65,4.91c1.96,1.46,4.23,2.63,6.82,3.51
			c2.58,0.88,5.37,1.33,8.37,1.33c3.2,0,6.22-0.18,9.06-0.54c2.84-0.36,5.35-1.01,7.52-1.94c2.17-0.93,3.9-2.17,5.19-3.72
			c1.29-1.55,1.94-3.52,1.94-5.9c0-2.59-0.75-4.86-2.25-6.83c-1.5-1.97-3.56-3.78-6.2-5.43c-2.63-1.66-5.79-3.28-9.45-4.89
			c-3.67-1.6-7.73-3.44-12.17-5.51c-8.37-3.93-14.57-7.94-18.59-12.03C839.41,100.19,837.4,95.2,837.4,89.3z"/>
		<path class="st0" d="M979.8,143.65c0,1.65,0.34,3.39,1.01,5.19c0.67,1.81,1.88,3.02,3.64,3.64c0.83,0.21,1.45,0.31,1.86,0.31
			l0.16,2.01c-0.52,0.62-1.24,1.17-2.17,1.63c-0.93,0.47-1.89,0.86-2.87,1.17c-0.98,0.31-1.99,0.54-3.02,0.7
			c-1.03,0.16-1.91,0.23-2.63,0.23c-2.48,0-4.83-0.52-7.05-1.55c-2.22-1.03-4.05-2.43-5.5-4.18c-1.76,1.75-3.9,3.25-6.43,4.49
			c-2.53,1.24-5.5,1.86-8.91,1.86c-6.82,0-12.03-1.34-15.65-4.03s-5.43-6.56-5.43-11.62c0-4.44,1.24-8,3.72-10.69
			c2.48-2.69,5.45-4.8,8.91-6.36c3.46-1.55,7.13-2.61,11-3.18c3.87-0.57,7.21-0.9,9.99-1v-5.73c0-1.24-0.21-2.48-0.62-3.72
			c-0.41-1.24-1.04-2.35-1.86-3.33c-0.83-0.98-1.86-1.81-3.1-2.48c-1.24-0.67-2.74-1.01-4.49-1.01c-2.58,0-4.78,0.67-6.59,2.01
			c-1.81,1.34-2.61,3.21-2.4,5.58c0.1,1.65-0.44,3.2-1.63,4.65c-1.19,1.45-2.92,2.17-5.19,2.17c-1.86,0-3.49-0.57-4.88-1.7
			c-1.4-1.14-2.2-2.53-2.4-4.19c-0.1-1.86,0.47-3.72,1.7-5.58c1.24-1.86,3-3.56,5.27-5.11c2.27-1.55,4.9-2.79,7.9-3.72
			c3-0.93,6.2-1.39,9.61-1.39c4.65,0,8.7,0.67,12.16,2.01c3.46,1.34,6.33,3.08,8.6,5.19c2.27,2.12,4,4.44,5.19,6.97
			c1.18,2.53,1.88,4.99,2.09,7.36c0.21,3.82,0.26,7.62,0.16,11.39C979.85,135.41,979.8,139.41,979.8,143.65z M952.53,150.62
			c1.45,0,2.87-0.29,4.26-0.85c1.39-0.57,2.71-1.27,3.95-2.09c-0.11-0.52-0.18-1.06-0.23-1.63c-0.05-0.57-0.08-1.16-0.08-1.78
			v-16.58c-2.38,0.62-4.6,1.47-6.66,2.56c-2.07,1.09-3.88,2.3-5.43,3.64c-1.55,1.34-2.74,2.76-3.56,4.26
			c-0.83,1.5-1.19,3.02-1.08,4.57c0.2,1.96,0.9,3.77,2.09,5.42C946.98,149.8,949.22,150.62,952.53,150.62z"/>
		<path class="st0" d="M1002.12,98.4c-2.69-0.52-4.94-1.21-6.74-2.09c-1.81-0.88-3.3-1.83-4.49-2.86c-1.19-1.03-2.04-1.99-2.56-2.87
			c-0.52-0.88-0.77-1.57-0.77-2.09l1.24-1.4c0.52,0.62,1.84,1.65,3.95,3.1c2.12,1.45,5.24,2.48,9.38,3.1V72.83
			c0-1.55,0.23-3.59,0.7-6.12c0.47-2.53,1.34-4.96,2.63-7.28c1.29-2.32,3.05-4.34,5.27-6.04c2.22-1.7,5.09-2.56,8.6-2.56
			c4.75,0,8.47,0.83,11.16,2.48c2.69,1.65,4.7,3.54,6.04,5.66c1.34,2.12,2.17,4.21,2.48,6.28c0.31,2.07,0.47,3.51,0.47,4.34
			c0,2.89-0.52,5.76-1.55,8.6c-1.04,2.84-2.43,5.5-4.19,7.98c-1.75,2.48-3.87,4.7-6.35,6.66c-2.48,1.96-5.17,3.46-8.06,4.49v44.16
			c0,3.31,0.41,5.73,1.24,7.28c0.82,1.55,1.81,2.63,2.94,3.26c1.13,0.72,2.53,0.98,4.18,0.77l0.62,1.55
			c-0.83,0.93-1.81,1.76-2.94,2.48c-1.04,0.62-2.25,1.16-3.64,1.63c-1.4,0.47-3.13,0.7-5.19,0.7c-1.76,0-3.49-0.29-5.19-0.85
			s-3.23-1.55-4.57-2.94c-1.34-1.4-2.45-3.23-3.33-5.5c-0.88-2.28-1.32-5.12-1.32-8.52V98.4z M1019.31,90.34
			c3.62-2.38,6.33-5.43,8.14-9.14c1.81-3.72,2.71-7.38,2.71-11c0-3.1-0.57-5.4-1.71-6.9c-1.14-1.49-2.38-2.3-3.72-2.4
			c-1.34-0.1-2.58,0.52-3.72,1.86c-1.14,1.34-1.71,3.31-1.71,5.89V90.34z"/>
		<path class="st0" d="M1074.63,98.86c4.44,0,8.68,0.62,12.71,1.86c4.03,1.24,7.65,3,10.85,5.27c3.2,2.28,5.78,5.03,7.75,8.29
			c1.96,3.26,3.1,6.89,3.41,10.92c0.41,5.58-0.34,10.49-2.25,14.72c-1.91,4.24-4.52,7.77-7.82,10.62s-7.05,4.98-11.23,6.43
			c-4.19,1.45-8.4,2.17-12.63,2.17c-4.24,0-8.37-0.62-12.4-1.86c-4.03-1.24-7.65-3.08-10.85-5.5c-3.21-2.43-5.84-5.42-7.9-8.99
			c-2.07-3.56-3.26-7.62-3.56-12.16c-0.31-4.55,0.39-8.76,2.09-12.63c1.7-3.87,4.13-7.23,7.29-10.07c3.15-2.84,6.84-5.06,11.08-6.66
			S1069.88,98.86,1074.63,98.86z M1077.27,152.94c2.58,0,4.7-0.54,6.36-1.63c1.65-1.08,2.89-2.74,3.72-4.96
			c0.83-2.22,1.32-5.01,1.47-8.37c0.16-3.36,0.08-7.31-0.23-11.85c-0.52-6.2-2.01-11.26-4.49-15.18c-2.48-3.93-6.25-5.89-11.31-5.89
			c-4.65,0-7.82,2.25-9.53,6.74c-1.7,4.49-2.3,10.67-1.78,18.51c0.52,6.82,2.04,12.3,4.57,16.43
			C1068.56,150.88,1072.31,152.94,1077.27,152.94z"/>
		<path class="st0" d="M1127.78,156.2v-44.78c0-2.69-0.52-4.42-1.55-5.2c-1.04-0.77-2.28-1.16-3.72-1.16v-2.01
			c1.03-0.83,2.12-1.55,3.26-2.17c1.03-0.52,2.19-1.01,3.49-1.47c1.29-0.47,2.66-0.7,4.1-0.7c2.89,0,5.43,0.85,7.59,2.56
			s3.46,4.88,3.87,9.53c0.93-1.14,2.08-2.4,3.47-3.79c1.39-1.4,2.98-2.71,4.78-3.95c1.8-1.24,3.78-2.27,5.94-3.1
			c2.16-0.82,4.47-1.24,6.94-1.24c1.96,0,3.81,0.29,5.55,0.85c1.75,0.57,3.32,1.5,4.71,2.79c1.39,1.29,2.5,3.05,3.32,5.27
			c0.82,2.22,1.23,5.04,1.23,8.45v31.46c0,1.96,0.39,3.36,1.16,4.18c0.77,0.83,2.25,1.24,4.42,1.24v2.02
			c-1.04,0.83-2.12,1.55-3.26,2.17c-1.03,0.52-2.16,0.98-3.39,1.4c-1.23,0.41-2.56,0.62-4,0.62c-4.4,0-7.53-1.34-9.37-4.03
			c-1.84-2.69-2.76-6.25-2.76-10.69v-28.2c0-2.79-0.44-4.7-1.32-5.73c-0.88-1.03-2.09-1.55-3.64-1.55c-1.14,0-2.35,0.39-3.64,1.17
			c-1.29,0.77-2.56,1.7-3.8,2.79c-1.24,1.09-2.4,2.22-3.49,3.41c-1.08,1.19-1.99,2.2-2.71,3.02v36.88H1127.78z"/>
	</g>
</g>
</svg>
